<svg width="40" height="48" viewBox="0 0 40 48" fill="none" xmlns="http://www.w3.org/2000/svg">
<path d="M8 14H24V18H8V14Z" fill="#313131"/>
<path d="M8 22H32V26H8V22Z" fill="#313131"/>
<path d="M8 30H13.98V34H8V30Z" fill="#313131"/>
<path d="M24 6L18 0V4H4C2.93913 4 1.92172 4.42143 1.17157 5.17157C0.421427 5.92172 0 6.93913 0 8V40C0 41.0609 0.421427 42.0783 1.17157 42.8284C1.92172 43.5786 2.93913 44 4 44H12V40H4V8H18V12L24 6Z" fill="#313131"/>
<path d="M16 42L22 48V44H36C37.0609 44 38.0783 43.5786 38.8284 42.8284C39.5786 42.0783 40 41.0609 40 40V8C40 6.93913 39.5786 5.92172 38.8284 5.17157C38.0783 4.42143 37.0609 4 36 4H28V8H36V40H22V36L16 42Z" fill="#313131"/>
</svg>
