<svg width="48" height="48" viewBox="0 0 48 48" fill="none" xmlns="http://www.w3.org/2000/svg">
<path d="M32.4375 22.8281L35.4844 25.875L31.6875 29.6719C31.4062 29.9531 31.4062 30.2344 31.6875 30.5156L32.4844 31.3125C32.7656 31.5938 33.0469 31.5938 33.3281 31.3125L37.125 27.5156L42.9844 33.375L39.1875 37.1719C38.9062 37.4531 38.9062 37.7187 39.1875 37.9688L39.9844 38.8125C40.2656 39.0938 40.5469 39.0938 40.8281 38.8125L44.625 35.0156L47.5781 37.9688C47.8594 38.25 48 38.5937 48 39C48 39.4063 47.8594 39.7656 47.5781 40.0781L40.0781 47.5781C39.7656 47.8594 39.4063 48 39 48C38.5937 48 38.25 47.8594 37.9688 47.5781L22.8281 32.4375L14.0156 41.25C13.5156 41.75 12.9062 42 12.1875 42C11.4688 42 10.8594 41.75 10.3594 41.25L6.79688 37.6406C6.29687 37.1406 6.04688 36.5391 6.04688 35.8359C6.04688 35.1328 6.29687 34.5313 6.79688 34.0312L15.6094 25.2188L0.421875 10.0312C0.140625 9.75 0 9.40625 0 9C0 8.59375 0.140625 8.25 0.421875 7.96875L7.92188 0.421875C8.23437 0.140625 8.59375 0 9 0C9.40625 0 9.75 0.140625 10.0312 0.421875L12.9844 3.375L9.1875 7.17188C8.90625 7.45312 8.90625 7.73438 9.1875 8.01562L9.98438 8.8125C10.2656 9.09375 10.5469 9.09375 10.8281 8.8125L14.625 5.01562L20.4844 10.875L16.6875 14.6719C16.4062 14.9531 16.4062 15.2344 16.6875 15.5156L17.4844 16.3125C17.7656 16.5938 18.0469 16.5938 18.3281 16.3125L22.125 12.5156L25.1719 15.6094L40.0312 0.75C40.5313 0.25 41.1328 0 41.8359 0C42.5391 0 43.1406 0.25 43.6406 0.75L47.25 4.35938C47.75 4.85938 48 5.46094 48 6.16406C48 6.86719 47.75 7.46875 47.25 7.96875L32.4375 22.8281ZM3.09375 37.875C3.15625 38.125 3.26563 38.3281 3.42188 38.4844L9.51562 44.5781C9.67187 44.7344 9.875 44.8437 10.125 44.9062C9.96875 45.2187 9.84375 45.4062 9.75 45.4688L1.5 48C0.75 48 0.3125 47.9375 0.1875 47.8125C0.0625 47.6875 0 47.25 0 46.5L2.53125 38.25C2.59375 38.1875 2.78125 38.0625 3.09375 37.875Z" fill="#313131"/>
</svg>
